<?xml version="1.0" encoding="UTF-8" standalone="no"?>
<svg
   version="1.1"
   viewBox="0 0 270.93 270.93"
   id="svg27398"
   sodipodi:docname="amr.svg"
   inkscape:export-filename="/home/johannes/code/openvkl-www/images/volume_types/amr.png"
   inkscape:export-xdpi="181.42"
   inkscape:export-ydpi="181.42"
   inkscape:version="1.1.1 (3bf5ae0d25, 2021-09-20)"
   xmlns:inkscape="http://www.inkscape.org/namespaces/inkscape"
   xmlns:sodipodi="http://sodipodi.sourceforge.net/DTD/sodipodi-0.dtd"
   xmlns="http://www.w3.org/2000/svg"
   xmlns:svg="http://www.w3.org/2000/svg">
  <sodipodi:namedview
     id="namedview27400"
     pagecolor="#ffffff"
     bordercolor="#666666"
     borderopacity="1.0"
     inkscape:pageshadow="2"
     inkscape:pageopacity="0.0"
     inkscape:pagecheckerboard="0"
     showgrid="false"
     inkscape:zoom="3.2222346"
     inkscape:cx="135.465"
     inkscape:cy="135.465"
     inkscape:window-width="3840"
     inkscape:window-height="1536"
     inkscape:window-x="0"
     inkscape:window-y="27"
     inkscape:window-maximized="1"
     inkscape:current-layer="svg27398" />
  <defs
     id="defs27190">
    <marker
       id="marker1301-2"
       overflow="visible"
       orient="auto">
      <path
         transform="scale(.4) rotate(180) translate(10)"
         d="m0 0 5-5-17.5 5 17.5 5-5-5z"
         fill-rule="evenodd"
         stroke="#000"
         stroke-width="1pt"
         id="path27172" />
    </marker>
    <marker
       id="marker1297-7"
       overflow="visible"
       orient="auto">
      <path
         transform="scale(.4) rotate(180) translate(10)"
         d="m0 0 5-5-17.5 5 17.5 5-5-5z"
         fill-rule="evenodd"
         stroke="#000"
         stroke-width="1pt"
         id="path27175" />
    </marker>
    <marker
       id="marker1293-9"
       overflow="visible"
       orient="auto">
      <path
         transform="scale(.4) rotate(180) translate(10)"
         d="m0 0 5-5-17.5 5 17.5 5-5-5z"
         fill-rule="evenodd"
         stroke="#000"
         stroke-width="1pt"
         id="path27178" />
    </marker>
    <marker
       id="marker1289-2"
       overflow="visible"
       orient="auto">
      <path
         transform="scale(.4) rotate(180) translate(10)"
         d="m0 0 5-5-17.5 5 17.5 5-5-5z"
         fill-rule="evenodd"
         stroke="#000"
         stroke-width="1pt"
         id="path27181" />
    </marker>
    <marker
       id="marker1285-97"
       overflow="visible"
       orient="auto">
      <path
         transform="scale(.4) rotate(180) translate(10)"
         d="m0 0 5-5-17.5 5 17.5 5-5-5z"
         fill-rule="evenodd"
         stroke="#000"
         stroke-width="1pt"
         id="path27184" />
    </marker>
    <marker
       id="Arrow1Mend"
       overflow="visible"
       orient="auto">
      <path
         transform="scale(.4) rotate(180) translate(10)"
         d="m0 0 5-5-17.5 5 17.5 5-5-5z"
         fill-rule="evenodd"
         stroke="#000"
         stroke-width="1pt"
         id="path27187" />
    </marker>
  </defs>
  <g
     transform="translate(-3.8188e-6 -1.6583)"
     fill="none"
     stroke="#000"
     stroke-dasharray="1.184, 1.184"
     stroke-width=".592"
     id="g27200">
    <path
       d="m135.47 137.12v-120"
       id="path27192" />
    <path
       d="m135.27 135.25 103.92 60"
       id="path27194" />
    <path
       d="m31.544 195.47 51.962-30"
       id="path27196" />
    <path
       d="m83.505 165.47 51.608-30.099"
       id="path27198" />
  </g>
  <g
     transform="matrix(.26458 0 0 .26458 -11.758 -5.2833)"
     id="g27276">
    <path
       d="m556.44 531.97 196.39-113.39v226.77l-196.39 113.39"
       fill="#aeaeae"
       id="path27202" />
    <path
       d="m851.02 702.05 98.195-56.693v113.39l-98.195 56.693z"
       fill="#00a3f6"
       id="path27204" />
    <path
       d="m654.63 702.05 163.66-94.488v37.795l32.732-18.898v75.591l-196.39 113.39z"
       fill="#fec91b"
       id="path27206" />
    <path
       d="m556.44 985.51 98.195-56.693v-226.77l-98.195 56.693z"
       fill="#00a3f6"
       id="path27208" />
    <g
       fill="#fec91b"
       id="g27216">
      <path
         d="m654.63 815.43 65.463-37.795v113.39l-65.463 37.795z"
         id="path27210" />
      <path
         d="m818.29 720.94 32.732-18.898v113.39l-32.732 18.898z"
         id="path27212" />
      <path
         d="m720.1 853.23 98.195-56.693v37.795l-98.195 56.693z"
         id="path27214" />
    </g>
    <path
       d="m720.1 777.64 98.195-56.693v75.591l-98.195 56.693z"
       fill="#e96115"
       id="path27218" />
    <path
       d="m556.44 758.74v226.77l-392.78-226.77v-113.39l98.195 56.693v-113.39"
       fill="#0068b5"
       id="path27220" />
    <path
       d="m360.05 418.58 196.39 113.39v226.77l-196.39-113.39z"
       fill="#808080"
       id="path27222" />
    <path
       d="m163.66 645.35 98.195-56.693"
       fill="none"
       stroke="#000"
       stroke-width="1px"
       id="path27224" />
    <path
       d="m163.66 645.35 98.195 56.693v-113.39z"
       fill="#76ceff"
       id="path27226" />
    <path
       d="m360.05 531.97v113.39l-98.195-56.693z"
       fill="#76ceff"
       id="path27228" />
    <path
       d="m360.05 418.58 196.39-113.39 196.39 113.39-196.39 113.39z"
       fill="#e9e9e9"
       id="path27230" />
    <path
       d="m752.83 569.76v75.591l65.463-37.795z"
       fill="#ffe17a"
       id="path27232" />
    <path
       d="m818.29 645.35 32.732-18.898-32.732-18.898z"
       fill="#f3d54e"
       id="path27234" />
    <path
       d="m851.02 588.66 98.195 56.693-98.195 56.693v-75.591l-32.732-18.898z"
       fill="#76ceff"
       id="path27236" />
    <g
       fill="none"
       id="g27244">
      <path
         d="m785.56 588.66-32.732 18.898"
         stroke="#555"
         stroke-dasharray="4, 4"
         stroke-width="2"
         id="path27238" />
      <path
         d="m752.83 607.56 32.732 18.898"
         stroke="#555"
         stroke-dasharray="4, 4"
         stroke-width="2"
         id="path27240" />
      <path
         d="m163.66 645.35 196.39-113.39v-113.39l196.39-113.39 196.39 113.39v151.18l65.463 37.795 32.732-18.898 98.195 56.693v113.39l-392.78 226.77-392.78-226.77z"
         stroke="#00285a"
         stroke-width="3"
         id="path27242" />
    </g>
    <path
       d="m818.29 607.56 32.732 18.898"
       fill="#ffe17a"
       stroke="#00285a"
       stroke-width="3"
       id="path27246" />
    <g
       fill="none"
       stroke="#00285a"
       stroke-width="3"
       id="g27274">
      <path
         d="m163.66 645.35 98.195 56.693"
         id="path27248" />
      <path
         d="m261.85 588.66v113.39"
         id="path27250" />
      <path
         d="m261.85 588.66 98.195 56.693"
         id="path27252" />
      <path
         d="m360.05 531.97v113.39"
         id="path27254" />
      <path
         d="m818.29 607.56-65.463 37.795"
         id="path27256" />
      <path
         d="m818.29 607.56v37.795"
         id="path27258" />
      <path
         d="m851.02 626.46-32.732 18.898"
         id="path27260" />
      <path
         d="m851.02 626.46v75.591"
         id="path27262" />
      <path
         d="m949.22 645.35-98.195 56.693"
         id="path27264" />
      <path
         d="m556.44 531.97v453.54"
         id="path27266" />
      <path
         d="m556.44 531.97-196.39-113.39"
         id="path27268" />
      <path
         d="m556.44 531.97 196.39-113.39"
         id="path27270" />
      <path
         d="m752.83 569.76v75.591"
         id="path27272" />
    </g>
  </g>
  <g
     fill="none"
     stroke="#252525"
     stroke-dasharray="1.184,1.184"
     stroke-width=".592"
     id="g27284">
    <path
       d="m83.505 165.47v60"
       id="path27278" />
    <path
       d="m187.43 165.47-51.962 30"
       id="path27280" />
    <path
       d="m83.505 165.47 51.962 30"
       id="path27282" />
  </g>
  <g
     fill="none"
     stroke="#252525"
     stroke-dasharray="1.184,1.184"
     stroke-width=".592"
     id="g27300">
    <path
       d="m109.49 240.47v-60"
       id="path27286" />
    <path
       d="m83.505 195.47 51.962 30"
       id="path27288" />
    <path
       d="m161.45 210.47-25.981 15"
       id="path27290" />
    <path
       d="m161.45 180.47v60"
       id="path27292" />
    <path
       d="m213.41 180.47v30"
       id="path27294" />
    <path
       d="m57.524 180.47 25.981 15"
       id="path27296" />
    <path
       d="m57.524 210.47v-30"
       id="path27298" />
  </g>
  <g
     transform="matrix(.26458 0 0 .26458 -11.758 -5.2833)"
     fill="none"
     stroke="#000"
     id="g27348">
    <g
       stroke-dasharray="4, 4"
       stroke-width="2"
       id="g27328">
      <path
         d="m654.63 739.84 163.66-94.488"
         id="path27302" />
      <path
         d="m654.63 891.02 196.39-113.39"
         id="path27304" />
      <path
         d="m687.37 683.15v226.77"
         id="path27306" />
      <path
         d="m720.1 664.25v226.77"
         id="path27308" />
      <path
         d="m785.56 815.43v37.795"
         id="path27310" />
      <path
         d="m818.29 645.35v188.98"
         id="path27312" />
      <path
         d="m654.63 777.64 196.39-113.39"
         id="path27314" />
      <path
         d="m818.29 758.74 32.732-18.898"
         id="path27316" />
      <path
         d="m752.83 645.35v113.39"
         id="path27318" />
      <path
         d="m654.63 815.43 196.39-113.39"
         id="path27320" />
      <path
         d="m752.83 834.33v37.795"
         id="path27322" />
      <path
         d="m785.56 626.46v113.39"
         id="path27324" />
      <path
         d="m654.63 853.23 65.463-37.795"
         id="path27326" />
    </g>
    <g
       stroke-dasharray="2, 2"
       id="g27346">
      <path
         d="m752.83 758.74v75.591"
         id="path27330" />
      <path
         d="m785.56 739.84v75.591"
         id="path27332" />
      <path
         d="m720.1 815.43 98.195-56.693"
         id="path27334" />
      <path
         d="m736.46 768.19v75.591"
         id="path27336" />
      <path
         d="m769.19 749.29v75.591"
         id="path27338" />
      <path
         d="m801.93 730.39v75.591"
         id="path27340" />
      <path
         d="m720.1 796.54 98.195-56.693"
         id="path27342" />
      <path
         d="m720.1 834.33 98.195-56.693"
         id="path27344" />
    </g>
  </g>
  <g
     transform="matrix(.26458 0 0 .26458 -11.758 -5.2833)"
     id="g27352">
    <path
       d="m163.66 305.2 392.78-226.77 392.78 226.77v453.54l-392.78 226.77-392.78-226.77z"
       fill="none"
       stroke="#252525"
       stroke-width="4"
       id="path27350" />
  </g>
  <g
     transform="matrix(.26458 0 0 .26458 -11.758 -5.2833)"
     display="none"
     id="g27396">
    <g
       fill="none"
       stroke="#000"
       stroke-dasharray="2, 2"
       stroke-width="2"
       id="g27366">
      <path
         d="m981.95 777.64 98.195 56.693"
         id="path27354" />
      <path
         d="m589.17 1004.4 98.195 56.693"
         id="path27356" />
      <path
         d="m523.71 1004.4-98.195 56.693"
         id="path27358" />
      <path
         d="m130.93 777.64-98.195 56.693"
         id="path27360" />
      <path
         d="m1014.7 758.74h130.93"
         id="path27362" />
      <path
         d="m1014.7 305.2h130.93"
         id="path27364" />
    </g>
    <g
       fill="#000000"
       font-family="sans-serif"
       font-size="40px"
       letter-spacing="0px"
       word-spacing="0px"
       id="g27380">
      <text
         x="1051.6909"
         y="541.23267"
         style="line-height:1.25"
         xml:space="preserve"
         id="text27370"><tspan
           x="1051.6909"
           y="541.23267"
           id="tspan27368">Ny</tspan></text>
      <text
         x="812.09882"
         y="933.71283"
         style="line-height:1.25"
         xml:space="preserve"
         id="text27374"><tspan
           x="812.09882"
           y="933.71283"
           id="tspan27372">Nz</tspan></text>
      <text
         x="245.96893"
         y="933.42047"
         style="line-height:1.25"
         xml:space="preserve"
         id="text27378"><tspan
           x="245.96893"
           y="933.42047"
           id="tspan27376">Nx</tspan></text>
    </g>
    <g
       fill="none"
       stroke="#000"
       stroke-dasharray="2, 2"
       stroke-width="2"
       id="g27394">
      <path
         d="m1080.1 456.38v-113.39"
         marker-end="url(#marker1297-7)"
         id="path27382" />
      <path
         d="m1080.1 607.56v113.39"
         marker-end="url(#marker1293-9)"
         id="path27384" />
      <path
         d="m899.64 882.05 98.195-56.693"
         marker-end="url(#marker1289-2)"
         id="path27386" />
      <path
         d="m768.71 957.64-98.195 56.693"
         marker-end="url(#marker1285-97)"
         id="path27388" />
      <path
         d="m343.86 957.35 98.195 56.693"
         marker-end="url(#marker1301-2)"
         id="path27390" />
      <path
         d="m212.93 881.76-98.195-56.693"
         marker-end="url(#Arrow1Mend)"
         id="path27392" />
    </g>
  </g>
</svg>
