<?xml version="1.0" encoding="UTF-8"?>
<svg version="1.1" viewBox="0 0 270.93 270.93" xmlns="http://www.w3.org/2000/svg">
 <g transform="matrix(.28996 0 0 .28996 -9.3586 -14.675)" stroke-width=".91247">
  <path d="m374.38 689.04s0.38313-30.842 19.157-87.354c18.773-56.512 35.631-85.63 35.631-85.63l28.352 16.475s-16.283 36.589-23.563 56.32c-7.2795 19.731-9.9614 33.332-9.9614 33.332z" fill="#0068b5"/>
  <path d="m806.46 397.57-23.976 9.6175s-23.84-10.972-52.693-3.7928c-28.852 7.1792-54.86 20.996-74.502 34.271-19.641 13.275-42.669 36.709-42.669 36.709s50.39-57.84 99.832-76.127c49.442-18.287 76.398-8.1274 76.398-8.1274z" fill="#0068b5"/>
  <path d="m163.27 548.24s4.3718-56.424 13.793-89.461c10.275-36.032 35.823-89.27 35.823-89.27s30.459 25.095 51.148 39.463c20.689 14.367 50.573 34.865 50.573 34.865s31.034-61.876 70.496-106.7 81.224-78.542 81.224-78.542 27.011 18.199 51.148 38.313c24.137 20.114 46.55 43.869 46.55 43.869s37.572-37.8 102.51-58.489c64.941-20.689 89.628-3.9611 89.628-3.9611s23.179 33.716 31.991 54.596c8.812 20.881 18.773 64.941 18.773 64.941s-52.85-39.413-151.91 34.865c-62.783 47.076-113.79 147.7-113.79 147.7l-113.02-65.515s-27.011 56.129-36.781 90.227-16.666 84.672-16.666 84.672-62.834-13.41-133.9-62.067c-71.071-48.658-77.584-79.5-77.584-79.5z" fill="#00a3f6"/>
  <path d="m212.89 369.12 68.389 34.099 37.93 30.267-5.1723 10.728s-19.54-13.218-50.765-35.44c-31.225-22.222-50.382-39.654-50.382-39.654z" fill="#76ceff"/>
  <g fill="none">
   <g stroke="#252525" stroke-dasharray="3.64988, 3.64988" stroke-width="1.8249">
    <path transform="rotate(30)" d="m705.58 556.75a212.08 358.06 0 0 1-183.67-179.03 212.08 358.06 0 0 1 0-358.06 212.08 358.06 0 0 1 183.67-179.03"/>
    <path transform="rotate(30)" d="m807.55 536.17a186.32 337.69 0 0 1-179.66-338.86 186.32 337.69 0 0 1 181.18-336.18"/>
    <path transform="rotate(30)" d="m968.1 421.88a140.46 257.72 0 0 1-177.82-57.532 140.46 257.72 0 0 1 1e-5 -331.31 140.46 257.72 0 0 1 177.82-57.532"/>
    <path transform="rotate(30)" d="m584.01 540.47a282.02 351.68 0 0 1-215.49-350.8 282.02 351.68 0 0 1 229.64-336.56"/>
    <ellipse transform="rotate(30)" cx="966.87" cy="198.69" rx="79.754" ry="146.34"/>
    <path transform="rotate(30)" d="m691.44-158.9a297.49 357.59 0 0 1 297.49 357.59 297.49 357.59 0 0 1-297.49 357.59"/>
    <path transform="rotate(-36.11)" d="m98.354 354.45a163.77 358.22 0 0 1 163.77 358.22 163.77 358.22 0 0 1-163.77 358.22"/>
    <path transform="rotate(-60)" d="m-198.69 1050.7a33.947 359.22 0 0 1-29.399-179.61 33.947 359.22 0 0 1 0-359.22 33.947 359.22 0 0 1 29.399-179.61"/>
    <path transform="rotate(98.046)" d="m442.79-924.79a195.85 357.78 0 0 1 171.72 185.74 195.85 357.78 0 0 1-6.574 364.36 195.85 357.78 0 0 1-178.04 164.68"/>
   </g>
   <g stroke="#00285a" stroke-width="2.7374">
    <g>
     <g stroke-linecap="round">
      <path transform="rotate(30)" d="m494.17 227.03a212.08 358.06 0 0 1 38.727-236.2"/>
      <path transform="rotate(30)" d="m658.79 12.447a186.32 337.69 0 0 1 135.2-149.45"/>
      <path transform="rotate(30)" d="m758.59 231.99a140.46 257.72 0 0 1 33.538-202.93 140.46 257.72 0 0 1 105.13-88.084"/>
      <path transform="rotate(30)" d="m794.14-136.92a297.49 357.59 0 0 1 103.53 77.88"/>
      <path transform="rotate(-36.11)" d="m224.29 483.67a163.77 358.22 0 0 1 30.528 123.2"/>
     </g>
     <path transform="rotate(-60)" d="m-232.01 760.07a33.947 359.22 0 0 1-0.11689-130.56"/>
     <path transform="rotate(98.046)" d="m630.8-466.76a195.85 357.78 0 0 1-110.43 228.26" stroke-linecap="round"/>
    </g>
    <g stroke-linecap="round">
     <path d="m373.68 691.11 50.526-70.099"/>
     <path transform="rotate(30)" d="m677.59 324.51a186.32 337.69 0 0 1-15.566-91.57"/>
     <path transform="rotate(30)" d="m415.81 393.81a282.02 351.68 0 0 1-47.13-180.07"/>
     <path d="m212.31 368.93 68.257 34.372"/>
     <path transform="rotate(-60)" d="m-215.9 493.46a33.947 359.22 0 0 1 6.9103-48.425"/>
     <path d="m806.84 398-24.497 9.2208"/>
    </g>
    <g>
     <path transform="rotate(30)" d="m767.11 104.14a140.46 257.72 0 0 1 113.66-142.83" stroke-linecap="round"/>
     <path transform="rotate(-60)" d="m-227.04 493.79a33.947 359.22 0 0 1 13.505-125.41"/>
     <path transform="rotate(30)" d="m668.97 410.22a186.32 337.69 0 0 1-40.233-179.31" stroke-linecap="round"/>
    </g>
   </g>
  </g>
 </g>
 <g transform="matrix(.28996 0 0 .28996 -9.3586 -14.675)" stroke-width="3.6499">
  <circle transform="rotate(30)" cx="691.44" cy="198.69" r="357.36" fill="none" stroke="#252525" stroke-width="3.6499"/>
 </g>
</svg>
