<?xml version="1.0" encoding="UTF-8"?>
<svg version="1.1" viewBox="0 0 270.93 270.93" xmlns="http://www.w3.org/2000/svg">
 <g>
  <path d="m66.185 175.47 34.641 20v-80l34.641 20v120l-69.282-40zm-34.641-20 34.641 20v40l-34.641-20z" fill="#0068b5"/>
  <path d="m31.544 75.467 34.641 20v40l-34.641-20z" fill="#0068b5"/>
  <path d="m135.47 135.47 34.641-20v40l69.282-40v80l-103.92 60z" fill="#00a3f6"/>
  <path d="m66.185 95.467 103.92-60v40l-103.92 60z" fill="#00a3f6"/>
 </g>
 <g fill="#76ceff">
  <path d="m170.11 115.47 34.641-20 34.641 20-69.282 40z"/>
  <path d="m100.83 115.47 34.641-20 34.641 20-34.641 20z"/>
  <path d="m31.544 75.467 103.92-60 34.641 20-103.92 60z"/>
 </g>
 <g fill="none" stroke-dasharray="1.05833, 1.05833" stroke-width=".52917">
  <g stroke="#555">
   <path d="m100.83 75.467v40"/>
   <path d="m135.47 55.467v40"/>
   <path d="m170.11 115.47 34.641 20"/>
  </g>
  <g stroke="#252525">
   <path d="m135.47 255.47v-120"/>
   <path d="m170.11 235.47v-120"/>
   <path d="m204.75 215.47v-80"/>
  </g>
 </g>
 <path d="m31.544 155.47 34.641-20 34.641 20-34.641 20zm34.641 20 34.641-20v40z" fill="#76ceff"/>
 <g fill="none">
  <g stroke-dasharray="1.05833, 1.05833" stroke-width=".52917">
   <path d="m100.83 235.47v-120" stroke="#252525"/>
   <path d="m100.83 155.47 34.641 20 103.92-60" stroke="#252525"/>
   <path d="m100.83 155.47-34.641 20" stroke="#555"/>
  </g>
  <g stroke="#252525" stroke-dasharray="1.05833, 1.05833" stroke-width=".52917">
   <path d="m100.83 195.47 34.641 20 103.92-60"/>
   <path d="m66.185 95.467 103.92-60"/>
   <path d="m100.83 35.467 34.641 20"/>
   <path d="m66.185 55.467 34.641 20"/>
  </g>
  <g stroke="#00285a" stroke-width=".79375">
   <g>
    <path d="m31.544 155.47 69.282 40v-80l34.641-20 34.641 20v40l69.282-40v80l-103.92 60"/>
    <path d="m239.39 115.47-34.641-20-34.641 20"/>
    <path d="m31.544 115.47 34.641 20 103.92-60v-40l-34.641-20-103.92 60z"/>
    <path d="m31.544 75.467 34.641 20v40"/>
    <path d="m66.185 95.467 103.92-60"/>
   </g>
   <path d="m100.83 115.47 34.641 20"/>
   <path d="m170.11 115.47-34.641 20"/>
   <path d="m135.47 255.47v-120"/>
  </g>
  <path d="m31.544 75.467 103.92-60 103.92 60v120l-103.92 60-103.92-60z" stroke="#252525" stroke-width="1.0583"/>
  <path d="m66.185 215.47v-40" stroke="#252525" stroke-dasharray="1.05833, 1.05833" stroke-width=".52917"/>
  <path d="m31.544 155.47 34.641-20" stroke="#00285a" stroke-width=".79375"/>
  <path d="m100.83 155.47-34.641-20" stroke="#00285a" stroke-width=".79375"/>
 </g>
</svg>
