<?xml version="1.0" encoding="UTF-8"?>
<svg version="1.1" viewBox="0 0 270.93 270.93" xmlns="http://www.w3.org/2000/svg">
 <g transform="matrix(.26625 0 0 .26625 -12.684 -6.1692)" fill="none" stroke="#252525" stroke-dasharray="4, 4" stroke-width="2">
  <path d="m556.44 532.91 392.78 226.77"/>
  <path d="m556.44 532.91-392.78 226.77"/>
  <path d="m556.44 532.91v-453.54"/>
 </g>
 <g transform="matrix(.25387 0 0 .25387 -14.149 .48707)">
  <path d="m785.56 324.09-65.463 37.795-229.12-18.898-32.732-132.28" fill="#ffe17a"/>
  <path d="m981.95 513.07-32.732 245.67-261.85-151.18z" fill="#00a3f6"/>
  <path d="m425.51 645.35-98.195 207.87 425.51-18.898z" fill="#525252"/>
  <path d="m196.39 550.87 229.12 94.488-98.195 207.87z" fill="#aeaeae"/>
  <path d="m392.78 475.28-196.39 75.591 229.12 94.488z" fill="#e9e9e9"/>
  <path d="m425.51 645.35 261.85-37.795 65.463 226.77z" fill="#004a86"/>
  <path d="m392.78 475.28 65.463-264.57 32.732 132.28-65.463 302.36z" fill="#fec91b"/>
  <path d="m720.1 361.89 65.463-37.795v113.39l-98.195 170.08z" fill="#fec91b"/>
  <path d="m490.98 342.99 229.12 18.898-32.732 245.67-261.85 37.795z" fill="#edb200"/>
  <path d="m785.56 437.48-98.195 170.08 294.59-94.488z" fill="#76ceff"/>
  <path d="m687.37 607.56 65.463 226.77 196.39-75.591z" fill="#0068b5"/>
  <path d="m196.39 550.87 196.39-75.591 65.463-264.57 327.32 113.39v113.39l196.39 75.591-32.732 245.67-196.39 75.591-425.51 18.898-130.93-302.36" fill="none" stroke="#252525" stroke-width="4"/>
 </g>
 <g transform="matrix(.9595 0 0 .9595 5.4869 5.4869)">
  <g fill="none" stroke="#00285a" stroke-width=".795">
   <path d="m31.497 140.54 60.622 25"/>
   <path d="m161.4 155.54-69.282 10"/>
   <path d="m92.118 165.54-8.6602-45"/>
   <path d="m66.138 220.54 25.981-55"/>
   <path d="m92.118 165.54 86.603 50"/>
   <path d="m161.4 155.54 25.981-45"/>
   <path d="m170.06 90.539-8.6602 65"/>
   <path d="m109.44 85.539-17.321 80"/>
   <path d="m109.44 85.539 60.622 5"/>
   <path d="m109.44 85.539-8.6602-35"/>
   <path d="m187.38 80.539-17.321 10"/>
   <path d="m161.4 155.54 17.321 60"/>
   <path d="m161.4 155.54 77.942-25"/>
   <path d="m161.4 155.54 69.282 40"/>
  </g>
 </g>
 <g transform="matrix(.26625 0 0 .26625 -12.684 -6.1692)" fill="none">
  <path d="m163.66 305.2 392.78-226.77 392.78 226.77v453.54l-392.78 226.77-392.78-226.77z" stroke="#252525" stroke-width="4"/>
  <path d="m163.66 305.2 392.78-226.77 392.78 226.77v453.54l-392.78 226.77-392.78-226.77z"/>
 </g>
</svg>
