<?xml version="1.0" encoding="UTF-8"?>
<svg version="1.1" viewBox="0 0 270.93 270.93" xmlns="http://www.w3.org/2000/svg">
 <g>
  <g transform="matrix(.26458 0 0 .26458 -11.758 -5.2833)">
   <path d="m752.83 531.97 98.195-56.693 98.195 56.693-196.39 113.39z" fill="#8cd9fa"/>
   <path d="m261.85 361.89 392.78-226.77v226.77l-98.195 56.693v-113.39l-294.59 170.08z" fill="#00a3f6"/>
  </g>
  <path d="m135.47 75.467 51.962-30 51.962 30-51.962 30z" fill="#e9e9e9"/>
  <path d="m187.43 105.47 51.962-30v60l-51.962 30z" fill="#aeaeae"/>
  <path d="m135.47 75.467v60l51.962 30v-60l-51.962-30" fill="#808080"/>
  <path d="m31.544 135.47 51.962-30 51.962 30-51.962 30z" fill="#e9e9e9"/>
  <path d="m83.505 165.47 51.962-30v60l-51.962 30z" fill="#aeaeae"/>
  <path d="m31.544 135.47v60l51.962 30v-60l-51.962-30" fill="#808080"/>
  <g transform="matrix(.26458 0 0 .26458 -11.758 -5.2833)">
   <g fill="#0068b5">
    <path d="m360.05 758.74 98.195 56.693v-340.16l98.195 56.693v453.54l-196.39-113.39z"/>
    <path d="m163.66 305.2 98.195 56.693v113.39l-98.195-56.693z"/>
    <path d="m556.44 305.2-98.195 56.693 98.195 56.693z"/>
   </g>
   <path d="m556.44 531.97 98.195-56.693v113.39l98.195-56.693v113.39l196.39-113.39 2e-5 226.77-392.78 226.77z" fill="#00a3f6"/>
   <g fill="#76ceff">
    <path d="m360.05 758.74 98.195-56.693v113.39z"/>
    <path d="m654.63 475.28 98.195 56.693-98.195 56.693z"/>
    <path d="m458.24 475.28 98.195-56.693 98.195 56.693-98.195 56.693z"/>
    <path d="m163.66 305.2 392.78-226.77 98.195 56.693-392.78 226.77z"/>
   </g>
   <g fill="none">
    <g stroke="#000" stroke-dasharray="4, 4" stroke-width="2">
     <path d="m261.85 248.5 98.195 56.693"/>
     <path d="m360.05 305.2v113.39"/>
     <path d="m458.24 248.5v113.39"/>
     <path d="m556.44 191.81v113.39"/>
     <path d="m458.24 135.12 98.195 56.693"/>
     <path d="m458.24 588.66 98.195 56.693"/>
     <path d="m654.63 588.66-98.195 56.693"/>
     <path d="m654.63 702.05v-113.39"/>
     <path d="m458.24 815.43 98.195 56.693"/>
     <path d="m752.83 758.74-196.39 113.39"/>
     <path d="m458.24 815.43v113.39"/>
     <path d="m654.63 928.82v-226.77"/>
     <path d="m851.02 815.43v-226.77"/>
     <path d="m949.22 645.35-196.39 113.39"/>
    </g>
    <path d="m163.66 305.2 392.78-226.77 392.78 226.77v453.54l-392.78 226.77-392.78-226.77z" stroke="#252525" stroke-width="4"/>
   </g>
  </g>
  <g fill="none">
   <path d="m135.47 255.47v-120" stroke="#252525" stroke-dasharray="1.184, 1.184" stroke-width=".592"/>
   <g stroke="#00285a">
    <path d="m83.505 225.47v-60" stroke-width=".795"/>
    <path d="m187.43 45.467-51.962 30" stroke-width=".794"/>
    <path d="m135.47 75.467 51.962 30" stroke-width=".795"/>
    <path d="m83.505 105.47 25.981 15" stroke-width=".795"/>
   </g>
   <path d="m109.49 180.47 25.981 15 103.92-60" stroke="#000" stroke-dasharray="1.184, 1.184" stroke-width=".592"/>
   <path d="m187.43 165.47v60" stroke="#000" stroke-dasharray="1.184, 1.184" stroke-width=".592"/>
   <g stroke="#00285a" stroke-width=".795">
    <path d="m187.43 105.47 51.962-30"/>
    <path d="m31.544 135.47 25.981-15"/>
    <path d="m83.505 165.47 25.115-14.5"/>
   </g>
   <path d="m135.47 75.467v30" stroke="#000" stroke-dasharray="1.184, 1.184" stroke-width=".592"/>
   <path d="m83.505 45.467 25.981 15" stroke="#000" stroke-dasharray="1.184, 1.184" stroke-width=".592"/>
   <path d="m31.544 135.47 51.962 30" stroke="#00285a" stroke-width=".795"/>
  </g>
 </g>
 <g transform="matrix(.26458 0 0 .26458 -11.758 -5.2833)" fill="none" stroke="#00285a" stroke-width="3">
  <g>
   <path d="m556.44 985.51-196.39-113.39v-113.39l98.195 56.693v-340.16l98.195-56.693 98.195 56.693v113.39l98.195-56.693v113.39l196.39-113.39"/>
   <path d="m360.05 758.74 98.195-56.693"/>
   <path d="m163.66 305.2 98.195 56.693v113.39"/>
   <path d="m261.85 361.89 392.78-226.77"/>
  </g>
  <path d="m458.24 475.28 98.195 56.693"/>
  <path d="m654.63 475.28-98.195 56.693"/>
  <path d="m556.44 985.51v-453.54"/>
  <path d="m752.83 531.97-98.195-56.693"/>
  <path d="m556.44 418.58-98.195-56.693"/>
  <path d="m163.66 418.58 98.195 56.693 294.59-170.08"/>
  <path d="m654.63 135.12v113.39"/>
  <path d="m556.44 305.2v113.39"/>
  <path d="m752.83 418.58-1e-5 113.39"/>
 </g>
</svg>
